<svg width="40" height="40" viewBox="0 0 40 40" fill="none" xmlns="http://www.w3.org/2000/svg">
  <!-- Car body -->
  <path d="M8 24C8 24 6 24 6 22C6 20 8 14 8 14L10 12H30L32 14C32 14 34 20 34 22C34 24 32 24 32 24" fill="#2563EB"/>
  
  <!-- Car windows -->
  <path d="M11 12L13 9H27L29 12H11Z" fill="#60A5FA"/>
  
  <!-- Car wheels -->
  <circle cx="13" cy="24" r="3" fill="#1F2937"/>
  <circle cx="13" cy="24" r="1.5" fill="#6B7280"/>
  <circle cx="27" cy="24" r="3" fill="#1F2937"/>
  <circle cx="27" cy="24" r="1.5" fill="#6B7280"/>
  
  <!-- Car details -->
  <rect x="16" y="14" width="8" height="3" rx="1" fill="#93C5FD"/>
  <circle cx="10" cy="18" r="1" fill="#FCD34D"/>
  <circle cx="30" cy="18" r="1" fill="#FCA5A5"/>
</svg>